<svg id="Layer_1" data-name="Layer 1" xmlns="http://www.w3.org/2000/svg" viewBox="0 0 426.15 255.11"><defs><style>.cls-1{fill:#fefdfd;}.cls-2{fill:#fd0202;}.cls-3{fill:#fd0101;}.cls-4{fill:#fefcfc;}.cls-5{fill:#fefbfb;}</style></defs><title>OBA</title><path class="cls-1" d="M8.47,159.76V0H434.62V255.11H8.47v-83.7c.12.11.33.2.35.33.42,2.59.73,5.19,1.24,7.76,1.65,8.3,4.52,16.16,9.68,22.89,5.31,6.92,11.23,13.27,19.34,17.14,7.51,3.59,15.28,5.93,23.67,5.86,2.6,0,5.22.05,7.82-.07a50.72,50.72,0,0,0,15.28-3.46,44.82,44.82,0,0,0,13.26-7.58c5.66-4.73,10.79-9.9,14.15-16.5a93.48,93.48,0,0,0,5-12.45,42.92,42.92,0,0,0,2.54-10.65c.53-7.9,1-15.89-1.21-23.64a101.67,101.67,0,0,0-4.76-13.9,48.92,48.92,0,0,0-8-12.17,53.31,53.31,0,0,0-20.44-14.69,58.28,58.28,0,0,0-22-3.85,55.71,55.71,0,0,0-28.3,7.63,53.15,53.15,0,0,0-16.53,15.53A55.63,55.63,0,0,0,9.35,157.51,8.82,8.82,0,0,1,8.47,159.76Zm176.06,58.62.72-.35c.75.93,1.48,1.87,2.26,2.77a55.64,55.64,0,0,0,16.68,13.46c8.1,4.15,16.67,6.71,25.88,6.4,3.49-.11,7-.46,10.47-.71a13.41,13.41,0,0,0,2.71-.21c4.52-1.26,9.09-2.39,13.5-4a55.1,55.1,0,0,0,19.89-12.16c2.69-2.59,5-5.53,7.61-8.24a46,46,0,0,0,8-12.75c1.81-4,3.1-8.15,4.52-12.28,2.08-6,2.74-12.37,3.13-18.67a92.18,92.18,0,0,0-1.77-23.06,72.5,72.5,0,0,0-6.62-20c-2.31-4.47-5.07-8.72-7.8-12.95-3.22-5-7.63-8.92-12.2-12.61A43.72,43.72,0,0,0,258,95.2c-4.57-1.51-9.15-3.22-13.87-4-4.51-.7-9.2-.1-13.79-.34-7-.36-13.68,1.27-20.28,3.31a42,42,0,0,0-6,2.58c-5.18,2.57-9.23,6.56-13.15,10.7a15.39,15.39,0,0,1-2.25,1.63,12.5,12.5,0,0,1-.65-2.82q0-44.76,0-89.52V14.63H144.28V237h40.25ZM431.11,115.94c-.7,0-1.23-.08-1.77-.08-16.19,0-32.39-.06-48.58,0-6.29,0-12.6.19-18.87.63a53.47,53.47,0,0,0-22.85,7A31.8,31.8,0,0,0,328.9,133a38.33,38.33,0,0,0-7,19.89,174.35,174.35,0,0,0,.41,23.75c.68,8.34,3.65,16.14,7.72,23.47,2,3.64,4.19,7.18,7.32,10,.72.66,1.29,1,2.15.21,2.07-1.94,4.24-3.76,6.28-5.72,3-2.9,5.93-5.91,8.94-8.8,1.12-1.08,1.19-1.84,0-3a35,35,0,0,1-8.29-11.7,31,31,0,0,1-1.17-23.2c1.87-5.5,8.61-11.73,15.6-12,1.73-.06,2.27.26,2.29,2.08.1,6.17.34,12.34.64,18.5a105.35,105.35,0,0,0,2,16.67,71.72,71.72,0,0,0,5,16.13c3.13,6.62,7.44,12.13,13.92,15.73a32,32,0,0,0,13.14,3.63,31.34,31.34,0,0,0,11.85-1.06,29.76,29.76,0,0,0,11.62-6.28,36.44,36.44,0,0,0,9.54-13.84,53.15,53.15,0,0,0,3.28-16.16c.17-2.53-.49-5.11-.75-7.67-.95-9.05-4.13-17-11.07-23.22-1.45-1.3-2.75-2.77-4.52-4.56h13.27Z" transform="translate(-8.47)"/><path class="cls-2" d="M8.47,159.76a8.82,8.82,0,0,0,.88-2.25,55.63,55.63,0,0,1,10.23-27.92,53.15,53.15,0,0,1,16.53-15.53,55.71,55.71,0,0,1,28.3-7.63,58.28,58.28,0,0,1,22,3.85A53.31,53.31,0,0,1,106.85,125a48.92,48.92,0,0,1,8,12.17,101.67,101.67,0,0,1,4.76,13.9c2.24,7.75,1.74,15.74,1.21,23.64a42.92,42.92,0,0,1-2.54,10.65,93.48,93.48,0,0,1-5,12.45c-3.36,6.6-8.49,11.77-14.15,16.5a44.82,44.82,0,0,1-13.26,7.58,50.72,50.72,0,0,1-15.28,3.46c-2.6.12-5.22.05-7.82.07-8.39.07-16.16-2.27-23.67-5.86-8.11-3.87-14-10.22-19.34-17.14-5.16-6.73-8-14.59-9.68-22.89-.51-2.57-.82-5.17-1.24-7.76,0-.13-.23-.22-.35-.33ZM37.92,166l-.47.05c.54,3.51.57,7.19,1.72,10.49,3,8.73,9.5,13.88,18.51,15.73a34.13,34.13,0,0,0,16.67-.59c11.48-3.35,16.22-10.47,17.87-20.61a30.61,30.61,0,0,0-1.33-15.55c-3.28-9-9.82-14.09-18.81-15.75a36.45,36.45,0,0,0-16.56.62A23.65,23.65,0,0,0,37.92,166Z" transform="translate(-8.47)"/><path class="cls-3" d="M184.53,218.38V237H144.28V14.63H188v2.16q0,44.76,0,89.52a12.5,12.5,0,0,0,.65,2.82,15.39,15.39,0,0,0,2.25-1.63c3.92-4.14,8-8.13,13.15-10.7a42,42,0,0,1,6-2.58c6.6-2,13.26-3.67,20.28-3.31,4.59.24,9.28-.36,13.79.34,4.72.73,9.3,2.44,13.87,4a43.72,43.72,0,0,1,13.54,7.88c4.57,3.69,9,7.62,12.2,12.61,2.73,4.23,5.49,8.48,7.8,12.95a72.5,72.5,0,0,1,6.62,20,92.18,92.18,0,0,1,1.77,23.06c-.39,6.3-1.05,12.63-3.13,18.67-1.42,4.13-2.71,8.33-4.52,12.28a46,46,0,0,1-8,12.75c-2.57,2.71-4.92,5.65-7.61,8.24a55.1,55.1,0,0,1-19.89,12.16c-4.41,1.58-9,2.71-13.5,4a13.41,13.41,0,0,1-2.71.21c-3.49.25-7,.6-10.47.71-9.21.31-17.78-2.25-25.88-6.4a55.64,55.64,0,0,1-16.68-13.46c-.78-.9-1.51-1.84-2.26-2.77Zm36-89.14c-1.69,0-3.15-.06-4.6,0a30.8,30.8,0,0,0-17.23,5.88c-8.54,6.33-13.3,15-13.58,25.79a104.79,104.79,0,0,0,.8,14.81,27.75,27.75,0,0,0,6.77,14.84A31.71,31.71,0,0,0,206,199.92a42.2,42.2,0,0,0,23.21,1.63,32.57,32.57,0,0,0,18.51-10.67,31.15,31.15,0,0,0,7.52-16.38c.76-5.26,1.73-10.69.24-16.05-1.12-4-1.85-8.26-3.6-12A27.94,27.94,0,0,0,239,133.2,34.88,34.88,0,0,0,220.49,129.24Z" transform="translate(-8.47)"/><path class="cls-2" d="M431.11,115.94v30H417.84c1.77,1.79,3.07,3.26,4.52,4.56,6.94,6.2,10.12,14.17,11.07,23.22.26,2.56.92,5.14.75,7.67a53.15,53.15,0,0,1-3.28,16.16,36.44,36.44,0,0,1-9.54,13.84,29.76,29.76,0,0,1-11.62,6.28,31.34,31.34,0,0,1-11.85,1.06,32,32,0,0,1-13.14-3.63c-6.48-3.6-10.79-9.11-13.92-15.73a71.72,71.72,0,0,1-5-16.13,105.35,105.35,0,0,1-2-16.67c-.3-6.16-.54-12.33-.64-18.5,0-1.82-.56-2.14-2.29-2.08-7,.23-13.73,6.46-15.6,12a31,31,0,0,0,1.17,23.2,35,35,0,0,0,8.29,11.7c1.19,1.13,1.12,1.89,0,3-3,2.89-5.92,5.9-8.94,8.8-2,2-4.21,3.78-6.28,5.72-.86.8-1.43.45-2.15-.21-3.13-2.84-5.29-6.38-7.32-10-4.07-7.33-7-15.13-7.72-23.47a174.35,174.35,0,0,1-.41-23.75,38.33,38.33,0,0,1,7-19.89A31.8,31.8,0,0,1,339,123.53a53.47,53.47,0,0,1,22.85-7c6.27-.44,12.58-.6,18.87-.63,16.19-.09,32.39,0,48.58,0C429.88,115.86,430.41,115.91,431.11,115.94ZM384.31,157c0,7.09.49,14.06,3.22,20.76a16,16,0,0,0,5.35,7.3,10.62,10.62,0,0,0,10.29,1.55c4.41-1.65,6.54-5.26,7.81-9.51a25.16,25.16,0,0,0,.32-11.26c-1-6.45-3.36-12-8.49-16.18a12,12,0,0,0-5.16-2.69c-4-.64-8-.7-12-1-1.1-.09-1.31.47-1.3,1.42C384.33,150.59,384.31,153.8,384.31,157Z" transform="translate(-8.47)"/><path class="cls-4" d="M37.92,166a23.65,23.65,0,0,1,17.6-25.61,36.45,36.45,0,0,1,16.56-.62c9,1.66,15.53,6.76,18.81,15.75A30.61,30.61,0,0,1,92.22,171c-1.65,10.14-6.39,17.26-17.87,20.61a34.13,34.13,0,0,1-16.67.59c-9-1.85-15.46-7-18.51-15.73-1.15-3.3-1.18-7-1.72-10.49Z" transform="translate(-8.47)"/><path class="cls-1" d="M220.49,129.24a34.88,34.88,0,0,1,18.49,4,27.94,27.94,0,0,1,12.92,13.24c1.75,3.75,2.48,8,3.6,12,1.49,5.36.52,10.79-.24,16.05a31.15,31.15,0,0,1-7.52,16.38,32.57,32.57,0,0,1-18.51,10.67A42.2,42.2,0,0,1,206,199.92a31.71,31.71,0,0,1-13.37-9.35,27.75,27.75,0,0,1-6.77-14.84,104.79,104.79,0,0,1-.8-14.81c.28-10.75,5-19.46,13.58-25.79a30.8,30.8,0,0,1,17.23-5.88C217.34,129.18,218.8,129.24,220.49,129.24Z" transform="translate(-8.47)"/><path class="cls-5" d="M384.31,157c0-3.21,0-6.42,0-9.63,0-.95.2-1.51,1.3-1.42,4,.32,8.09.38,12,1a12,12,0,0,1,5.16,2.69c5.13,4.14,7.49,9.73,8.49,16.18a25.16,25.16,0,0,1-.32,11.26c-1.27,4.25-3.4,7.86-7.81,9.51a10.62,10.62,0,0,1-10.29-1.55,16,16,0,0,1-5.35-7.3C384.8,171.07,384.29,164.1,384.31,157Z" transform="translate(-8.47)"/></svg>